<svg width="96" height="124" viewBox="0 0 96 124" fill="none" xmlns="http://www.w3.org/2000/svg">
<path d="M66.0464 11.3261C82.2314 18.5863 93.5456 35.1963 93.5456 54.5265C93.5456 61.7448 91.9678 68.5825 89.1487 74.6967C86.8637 79.6522 82.491 86.0559 76.8664 92.5267" stroke="white" stroke-width="4" stroke-miterlimit="10" stroke-linecap="round" stroke-linejoin="round"/>
<path d="M71.5766 98.2973C60.8087 109.734 47.7728 121.5 47.7728 121.5C47.7728 121.5 13.7396 90.6207 6.39697 74.6966C3.57778 68.5819 2 61.7445 2 54.5264C2 28.5112 22.4932 7.42272 47.7728 7.42272C49.6447 7.42272 51.4901 7.53812 53.303 7.76294" stroke="white" stroke-width="4" stroke-miterlimit="10" stroke-linecap="round" stroke-linejoin="round"/>
<path d="M33.3462 24.9099C37.4431 22.8208 41.9457 21.6487 46.5412 21.4752" stroke="white" stroke-width="4" stroke-miterlimit="10" stroke-linecap="round" stroke-linejoin="round"/>
<path d="M72.5088 33.1649C77.3746 39.0083 80.3124 46.5977 80.3124 54.8913C80.3124 73.3604 65.7444 88.3315 47.773 88.3315C29.8014 88.3315 15.2334 73.3604 15.2334 54.8913C15.2334 44.8427 19.5462 35.8297 26.3736 29.7001" stroke="white" stroke-width="4" stroke-miterlimit="10" stroke-linecap="round" stroke-linejoin="round"/>
<path d="M56.2568 28.569H63.3397" stroke="white" stroke-width="4" stroke-miterlimit="10" stroke-linecap="round" stroke-linejoin="round"/>
<path d="M56.2568 42.5947H63.3397" stroke="white" stroke-width="4" stroke-miterlimit="10" stroke-linecap="round" stroke-linejoin="round"/>
<path d="M56.2568 56.6206H63.3397" stroke="white" stroke-width="4" stroke-miterlimit="10" stroke-linecap="round" stroke-linejoin="round"/>
<path d="M56.2568 70.6465H63.3397" stroke="white" stroke-width="4" stroke-miterlimit="10" stroke-linecap="round" stroke-linejoin="round"/>
<path d="M23.5852 76.0047V51.0402H47.5619V88.3317" stroke="white" stroke-width="4" stroke-miterlimit="10" stroke-linecap="round" stroke-linejoin="round"/>
<path d="M66.0604 15.2876H53.535V2.00002H66.0604V15.2876Z" stroke="white" stroke-width="4" stroke-miterlimit="10" stroke-linecap="round" stroke-linejoin="round"/>
<path d="M47.635 88.3317V15.2876H71.9601V76.3122" stroke="white" stroke-width="4" stroke-miterlimit="10" stroke-linecap="round" stroke-linejoin="round"/>
<path d="M31.7591 41.4862V50.731" stroke="white" stroke-width="4" stroke-miterlimit="10" stroke-linecap="round" stroke-linejoin="round"/>
<path d="M39.1508 33.7812V50.731" stroke="white" stroke-width="4" stroke-miterlimit="10" stroke-linecap="round" stroke-linejoin="round"/>
<path d="M31.4876 60.2163V63.9141" stroke="white" stroke-width="4" stroke-miterlimit="10" stroke-linecap="round" stroke-linejoin="round"/>
<path d="M31.4876 73.2317V76.9297" stroke="white" stroke-width="4" stroke-miterlimit="10" stroke-linecap="round" stroke-linejoin="round"/>
<path d="M39.4222 60.2163V63.9141" stroke="white" stroke-width="4" stroke-miterlimit="10" stroke-linecap="round" stroke-linejoin="round"/>
<path d="M39.4222 73.2317V76.9297" stroke="white" stroke-width="4" stroke-miterlimit="10" stroke-linecap="round" stroke-linejoin="round"/>
</svg>
