<svg width="16" height="16" viewBox="0 0 16 16" fill="none" xmlns="http://www.w3.org/2000/svg">
<path d="M1.6 7.46667H5.86667C6.29084 7.4661 6.69748 7.29735 6.99741 6.99741C7.29735 6.69748 7.4661 6.29084 7.46667 5.86667V1.6C7.4661 1.17583 7.29735 0.769188 6.99741 0.469252C6.69748 0.169317 6.29084 0.000564436 5.86667 0H1.6C1.17583 0.000564436 0.769188 0.169317 0.469252 0.469252C0.169317 0.769188 0.000564436 1.17583 0 1.6V5.86667C0.000564436 6.29084 0.169317 6.69748 0.469252 6.99741C0.769188 7.29735 1.17583 7.4661 1.6 7.46667ZM1.06667 1.6C1.06667 1.45855 1.12286 1.3229 1.22288 1.22288C1.3229 1.12286 1.45855 1.06667 1.6 1.06667H5.86667C6.00811 1.06667 6.14377 1.12286 6.24379 1.22288C6.34381 1.3229 6.4 1.45855 6.4 1.6V5.86667C6.4 6.00811 6.34381 6.14377 6.24379 6.24379C6.14377 6.34381 6.00811 6.4 5.86667 6.4H1.6C1.45855 6.4 1.3229 6.34381 1.22288 6.24379C1.12286 6.14377 1.06667 6.00811 1.06667 5.86667V1.6ZM1.6 16H5.86667C6.29084 15.9994 6.69748 15.8307 6.99741 15.5307C7.29735 15.2308 7.4661 14.8242 7.46667 14.4V10.1333C7.4661 9.70916 7.29735 9.30252 6.99741 9.00258C6.69748 8.70265 6.29084 8.5339 5.86667 8.53333H1.6C1.17583 8.5339 0.769188 8.70265 0.469252 9.00258C0.169317 9.30252 0.000564436 9.70916 0 10.1333V14.4C0.000564436 14.8242 0.169317 15.2308 0.469252 15.5307C0.769188 15.8307 1.17583 15.9994 1.6 16ZM1.06667 10.1333C1.06667 9.99188 1.12286 9.85623 1.22288 9.75621C1.3229 9.65619 1.45855 9.6 1.6 9.6H5.86667C6.00811 9.6 6.14377 9.65619 6.24379 9.75621C6.34381 9.85623 6.4 9.99188 6.4 10.1333V14.4C6.4 14.5414 6.34381 14.6771 6.24379 14.7771C6.14377 14.8771 6.00811 14.9333 5.86667 14.9333H1.6C1.45855 14.9333 1.3229 14.8771 1.22288 14.7771C1.12286 14.6771 1.06667 14.5414 1.06667 14.4V10.1333ZM14.4 0H10.1333C9.70916 0.000564436 9.30252 0.169317 9.00258 0.469252C8.70265 0.769188 8.5339 1.17583 8.53333 1.6V5.86667C8.5339 6.29084 8.70265 6.69748 9.00258 6.99741C9.30252 7.29735 9.70916 7.4661 10.1333 7.46667H14.4C14.8242 7.4661 15.2308 7.29735 15.5307 6.99741C15.8307 6.69748 15.9994 6.29084 16 5.86667V1.6C15.9994 1.17583 15.8307 0.769188 15.5307 0.469252C15.2308 0.169317 14.8242 0.000564436 14.4 0ZM14.9333 5.86667C14.9333 6.00811 14.8771 6.14377 14.7771 6.24379C14.6771 6.34381 14.5414 6.4 14.4 6.4H10.1333C9.99188 6.4 9.85623 6.34381 9.75621 6.24379C9.65619 6.14377 9.6 6.00811 9.6 5.86667V1.6C9.6 1.45855 9.65619 1.3229 9.75621 1.22288C9.85623 1.12286 9.99188 1.06667 10.1333 1.06667H14.4C14.5414 1.06667 14.6771 1.12286 14.7771 1.22288C14.8771 1.3229 14.9333 1.45855 14.9333 1.6V5.86667ZM12.2667 8.53333C11.5283 8.53333 10.8065 8.75229 10.1925 9.16251C9.57859 9.57274 9.10008 10.1558 8.81751 10.838C8.53495 11.5202 8.46101 12.2708 8.60507 12.995C8.74912 13.7192 9.10468 14.3844 9.6268 14.9065C10.1489 15.4286 10.8141 15.7842 11.5383 15.9283C12.2625 16.0723 13.0132 15.9984 13.6953 15.7158C14.3775 15.4332 14.9606 14.9547 15.3708 14.3408C15.781 13.7269 16 13.005 16 12.2667C15.9989 11.2769 15.6052 10.3279 14.9053 9.62805C14.2054 8.92816 13.2565 8.53446 12.2667 8.53333ZM12.2667 14.9333C11.7392 14.9333 11.2237 14.7769 10.7851 14.4839C10.3466 14.1909 10.0048 13.7744 9.80299 13.2872C9.60115 12.7999 9.54834 12.2637 9.65124 11.7464C9.75413 11.2291 10.0081 10.754 10.381 10.381C10.754 10.0081 11.2291 9.75413 11.7464 9.65124C12.2637 9.54834 12.7999 9.60115 13.2872 9.80299C13.7744 10.0048 14.1909 10.3466 14.4839 10.7851C14.7769 11.2237 14.9333 11.7392 14.9333 12.2667C14.9325 12.9736 14.6513 13.6514 14.1513 14.1513C13.6514 14.6513 12.9736 14.9325 12.2667 14.9333Z" fill="#2AAA8A"/>
</svg>
