<svg width="113" height="72" viewBox="0 0 113 72" fill="none" xmlns="http://www.w3.org/2000/svg">
<path d="M105.09 30.3028L102.163 18.5978C102.964 18.4279 103.564 17.7181 103.564 16.8677V14.9805C103.564 10.8829 100.23 7.54939 96.1327 7.54939H82.804V3.65662C82.804 1.64027 81.1637 0 79.1474 0H11.2056C9.18921 0 7.54894 1.64027 7.54894 3.65662V35.7403C7.54894 36.2096 7.73536 36.6596 8.06718 36.9914C8.39901 37.3233 8.84906 37.5097 9.31833 37.5097C9.78759 37.5097 10.2376 37.3233 10.5695 36.9914C10.9013 36.6596 11.0877 36.2096 11.0877 35.7403V3.65662C11.0877 3.59151 11.1405 3.53876 11.2056 3.53876H79.1472C79.2123 3.53876 79.265 3.59151 79.265 3.65662V35.7407C79.265 36.21 79.4514 36.66 79.7833 36.9919C80.1151 37.3237 80.5651 37.5101 81.0344 37.5101C81.5037 37.5101 81.9537 37.3237 82.2855 36.9919C82.6174 36.66 82.8038 36.21 82.8038 35.7407V33.735H103.675L103.68 33.7354L103.685 33.7352C106.253 33.737 108.434 35.4227 109.183 37.7456H103.681C103.212 37.7456 102.762 37.932 102.43 38.2638C102.098 38.5957 101.912 39.0457 101.912 39.515V43.2895C101.912 46.3464 104.399 48.8333 107.456 48.8333H109.461V56.6182H104.835C103.315 52.2299 99.1436 49.069 94.2451 49.069C89.3465 49.069 85.1748 52.2299 83.6553 56.6182H82.8033V43.2892C82.8033 42.82 82.6169 42.3699 82.2851 42.0381C81.9533 41.7063 81.5032 41.5199 81.034 41.5199C80.5647 41.5199 80.1146 41.7063 79.7828 42.0381C79.451 42.3699 79.2646 42.82 79.2646 43.2892V56.6177H42.5554C41.0356 52.2295 36.8641 49.0686 31.9656 49.0686C27.0671 49.0686 22.8953 52.2295 21.3758 56.6177H11.2056C11.1743 56.6177 11.1443 56.6053 11.1222 56.5832C11.1001 56.5611 11.0877 56.5312 11.0877 56.4999V52.6073H18.7547C19.224 52.6073 19.674 52.4209 20.0059 52.0891C20.3377 51.7573 20.5241 51.3072 20.5241 50.838C20.5241 50.3687 20.3377 49.9186 20.0059 49.5868C19.674 49.255 19.224 49.0686 18.7547 49.0686H1.76938C1.30011 49.0686 0.850063 49.255 0.51824 49.5868C0.186416 49.9186 0 50.3687 0 50.838C0 51.3072 0.186416 51.7573 0.51824 52.0891C0.850063 52.4209 1.30011 52.6073 1.76938 52.6073H7.54917V56.4999C7.54917 58.5162 9.18943 60.1565 11.2058 60.1565H20.7631C20.7627 60.1958 20.76 60.2349 20.76 60.2744C20.76 66.4532 25.787 71.4799 31.9656 71.4799C38.1442 71.4799 43.1712 66.4532 43.1712 60.2744C43.1712 60.2346 43.1685 60.1958 43.1681 60.1565H83.0426C83.0421 60.1958 83.0395 60.2349 83.0395 60.2744C83.0395 66.4532 88.0665 71.4799 94.2451 71.4799C100.424 71.4799 105.451 66.4532 105.451 60.2744C105.451 60.2346 105.448 60.1958 105.448 60.1565H111.231C111.7 60.1565 112.15 59.9701 112.482 59.6383C112.814 59.3064 113 58.8564 113 58.3871V39.5145C113 34.8551 109.562 30.9837 105.09 30.3028ZM82.804 11.0879H96.1327C98.2791 11.0879 100.025 12.8341 100.025 14.9805V15.0983H82.804V11.0879ZM82.804 30.1964V18.6369H98.5258L101.416 30.1964H82.804ZM31.9656 67.9418C27.738 67.9418 24.2986 64.5026 24.2986 60.2748C24.2986 56.047 27.738 52.6078 31.9656 52.6078C36.1932 52.6078 39.6326 56.047 39.6326 60.2748C39.6326 64.5026 36.1932 67.9418 31.9656 67.9418ZM94.2455 67.9418C90.0179 67.9418 86.5785 64.5026 86.5785 60.2748C86.5785 56.047 90.0179 52.6078 94.2455 52.6078C98.4731 52.6078 101.913 56.047 101.913 60.2748C101.913 64.5026 98.4731 67.9418 94.2455 67.9418ZM109.462 45.2946H107.456C106.351 45.2946 105.451 44.395 105.451 43.2892V41.2839H109.461V45.2946H109.462Z" fill="white"/>
</svg>
