<svg width="23" height="22" viewBox="0 0 23 22" fill="none" xmlns="http://www.w3.org/2000/svg">
<path d="M12.8791 11.2589C12.8725 11.6071 12.7626 11.9455 12.5634 12.2312C12.3643 12.5168 12.0848 12.737 11.7603 12.8636C11.4359 12.9903 11.0812 13.0177 10.7412 12.9426C10.4011 12.8674 10.091 12.6929 9.85023 12.4413C9.60943 12.1897 9.44875 11.8723 9.38857 11.5293C9.32838 11.1863 9.3714 10.8331 9.51216 10.5145C9.65292 10.196 9.88509 9.92641 10.1792 9.73996C10.4734 9.55351 10.8163 9.45859 11.1644 9.46723C11.6271 9.48437 12.0648 9.68102 12.3849 10.0155C12.705 10.3499 12.8823 10.7959 12.8791 11.2589Z" fill="white"/>
<path d="M14.1465 5.75204H8.18352C7.59349 5.75204 7.02763 5.98643 6.61041 6.40365C6.1932 6.82086 5.95881 7.38672 5.95881 7.97675V14.0738C5.95881 14.366 6.01635 14.6553 6.12816 14.9252C6.23996 15.1951 6.40383 15.4404 6.61041 15.6469C6.817 15.8535 7.06225 16.0174 7.33216 16.1292C7.60208 16.241 7.89137 16.2985 8.18352 16.2985H14.1465C14.4387 16.2985 14.7279 16.241 14.9979 16.1292C15.2678 16.0174 15.513 15.8535 15.7196 15.6469C15.9262 15.4404 16.0901 15.1951 16.2019 14.9252C16.3137 14.6553 16.3712 14.366 16.3712 14.0738V7.98775C16.3724 7.69475 16.3157 7.40441 16.2044 7.13335C16.0932 6.8623 15.9295 6.61586 15.7229 6.40817C15.5162 6.20048 15.2706 6.03562 15.0001 5.92302C14.7296 5.81043 14.4395 5.75233 14.1465 5.75204ZM11.1645 14.2409C10.5742 14.2542 9.9933 14.0914 9.49597 13.7731C8.99864 13.4549 8.60742 12.9956 8.37224 12.4541C8.13705 11.9125 8.06856 11.3131 8.17552 10.7324C8.28247 10.1518 8.56001 9.61612 8.97273 9.19388C9.38544 8.77164 9.91461 8.48194 10.4927 8.36176C11.0708 8.24158 11.6715 8.29637 12.2184 8.51914C12.7652 8.74191 13.2332 9.12254 13.5627 9.61248C13.8922 10.1024 14.0683 10.6794 14.0685 11.2699C14.073 11.6556 14.0014 12.0385 13.8579 12.3967C13.7144 12.7548 13.5017 13.0811 13.232 13.357C12.9623 13.6329 12.6409 13.853 12.2862 14.0047C11.9314 14.1563 11.5503 14.2366 11.1645 14.2409ZM14.3916 8.29991C14.3191 8.29992 14.2473 8.28547 14.1804 8.25738C14.1135 8.2293 14.0529 8.18816 14.0022 8.13636C13.9514 8.08457 13.9115 8.02316 13.8847 7.95574C13.858 7.88832 13.845 7.81625 13.8464 7.74373C13.8464 7.59622 13.905 7.45476 14.0093 7.35045C14.1136 7.24615 14.2551 7.18755 14.4026 7.18755C14.5501 7.18755 14.6916 7.24615 14.7959 7.35045C14.9002 7.45476 14.9588 7.59622 14.9588 7.74373C14.961 7.82225 14.9462 7.90032 14.9154 7.97258C14.8846 8.04485 14.8385 8.10961 14.7804 8.16242C14.7223 8.21524 14.6534 8.25487 14.5785 8.2786C14.5036 8.30233 14.4245 8.3096 14.3465 8.29991H14.3916Z" fill="white"/>
<path d="M11.1644 0.000137587C8.24927 -0.0144383 5.4477 1.12963 3.37606 3.18066C1.30442 5.23169 0.132389 8.02167 0.117813 10.9368C0.103238 13.852 1.24731 16.6536 3.29834 18.7252C5.34937 20.7969 8.13935 21.9689 11.0545 21.9835C12.498 21.9907 13.9287 21.7135 15.265 21.1678C16.6014 20.6221 17.8171 19.8185 18.8429 18.8029C19.8687 17.7874 20.6844 16.5797 21.2434 15.2489C21.8025 13.9181 22.0939 12.4902 22.1011 11.0468C22.1084 9.60332 21.8312 8.17258 21.2855 6.83625C20.7398 5.49992 19.9362 4.28416 18.9206 3.25838C17.9051 2.23261 16.6974 1.41691 15.3666 0.85786C14.0358 0.298809 12.6079 0.00735482 11.1644 0.000137587ZM17.8397 13.9618C17.8427 14.4549 17.7479 14.9437 17.5606 15.3999C17.3734 15.8561 17.0974 16.2706 16.7488 16.6193C16.4001 16.9681 15.9857 17.2441 15.5296 17.4315C15.0734 17.6189 14.5846 17.7139 14.0915 17.711H8.23956C7.74651 17.7138 7.25782 17.6187 6.80176 17.4314C6.3457 17.244 5.93134 16.968 5.58265 16.6194C5.23396 16.2709 4.95787 15.8566 4.77037 15.4006C4.58287 14.9446 4.48767 14.4559 4.4903 13.9629V8.10979C4.48724 7.61667 4.58208 7.12784 4.76935 6.67165C4.95661 6.21546 5.23257 5.80097 5.58121 5.45222C5.92986 5.10348 6.34426 4.8274 6.8004 4.64C7.25654 4.45261 7.74533 4.35761 8.23846 4.36053H14.0915C14.5845 4.35761 15.0733 4.45257 15.5293 4.6399C15.9854 4.82723 16.3997 5.10321 16.7484 5.45184C17.097 5.80047 17.373 6.21482 17.5603 6.67089C17.7476 7.12695 17.8426 7.61566 17.8397 8.10869V13.9618Z" fill="white"/>
</svg>
