<svg width="26" height="25" viewBox="0 0 26 25" fill="none" xmlns="http://www.w3.org/2000/svg">
<path d="M13.2104 0C10.789 0 8.42203 0.718015 6.40875 2.06325C4.39546 3.40848 2.8263 5.32051 1.89969 7.55755C0.973078 9.79458 0.730634 12.2562 1.20302 14.631C1.6754 17.0058 2.84139 19.1872 4.55355 20.8994C6.2657 22.6115 8.44712 23.7775 10.8219 24.2499C13.1968 24.7223 15.6583 24.4799 17.8954 23.5532C20.1324 22.6266 22.0445 21.0575 23.3897 19.0442C24.7349 17.0309 25.4529 14.6639 25.4529 12.2426C25.4529 8.99564 24.1631 5.8817 21.8672 3.58577C19.5712 1.28984 16.4573 0 13.2104 0ZM9.65034 18.686H6.97953V10.0824H9.65034V18.686ZM8.31333 8.90809C8.00595 8.90936 7.7051 8.81947 7.4488 8.64979C7.1925 8.48011 6.99225 8.23826 6.87338 7.9548C6.7545 7.67134 6.72233 7.359 6.78093 7.05726C6.83953 6.75552 6.98627 6.47792 7.20261 6.25956C7.41894 6.0412 7.69515 5.89188 7.99633 5.83047C8.29752 5.76906 8.61014 5.79832 8.8947 5.91454C9.17925 6.03077 9.42297 6.22875 9.59503 6.48346C9.76709 6.73817 9.85977 7.03817 9.86137 7.34555C9.86223 7.75771 9.69987 8.15346 9.40978 8.44626C9.1197 8.73907 8.72548 8.90511 8.31333 8.90809ZM19.6538 18.686H16.9846V14.4978C16.9846 13.4991 16.9653 12.2184 15.596 12.2184C14.2268 12.2184 13.9852 13.3041 13.9852 14.4253V18.686H11.3256V10.0824H13.8885V11.2551H13.9256C14.2816 10.5786 15.1531 9.86494 16.453 9.86494C19.1561 9.86494 19.6538 11.6466 19.6538 13.9598V18.686Z" fill="#0047AD"/>
</svg>
