<svg width="16" height="16" viewBox="0 0 16 16" fill="none" xmlns="http://www.w3.org/2000/svg">
<path d="M15.22 0.78C14.7197 0.280749 14.0418 0.000251011 13.335 0H2.665C1.9582 0 1.28034 0.280776 0.78056 0.78056C0.280776 1.28034 0 1.9582 0 2.665V13.335C0 14.0418 0.280776 14.7197 0.78056 15.2194C1.28034 15.7192 1.9582 16 2.665 16H13.335C14.0418 16 14.7197 15.7192 15.2194 15.2194C15.7192 14.7197 16 14.0418 16 13.335V2.665C15.9997 1.95819 15.7193 1.28032 15.22 0.78ZM1.535 1.535C1.83481 1.23524 2.24104 1.06627 2.665 1.065H13.335C13.7589 1.06632 14.1651 1.23531 14.4649 1.53509C14.7647 1.83486 14.9337 2.24106 14.935 2.665V4.265H1.065V2.665C1.06627 2.24104 1.23524 1.83481 1.535 1.535ZM11.735 9.065H4.265V8C4.265 7.92974 4.27884 7.86017 4.30572 7.79526C4.33261 7.73036 4.37202 7.67138 4.4217 7.6217C4.47138 7.57202 4.53036 7.53261 4.59526 7.50572C4.66017 7.47884 4.72974 7.465 4.8 7.465H11.2C11.3419 7.465 11.478 7.52137 11.5783 7.6217C11.6786 7.72203 11.735 7.85811 11.735 8V9.065ZM4.265 14.935V10.135H11.735V14.935H4.265ZM14.465 14.465C14.1652 14.7648 13.759 14.9337 13.335 14.935H12.8V8C12.7987 7.57606 12.6297 7.16986 12.3299 6.87009C12.0301 6.57031 11.6239 6.40132 11.2 6.4H4.8C4.37606 6.40132 3.96986 6.57031 3.67009 6.87009C3.37031 7.16986 3.20132 7.57606 3.2 8V14.935H2.665C2.24106 14.9337 1.83486 14.7647 1.53509 14.4649C1.23531 14.1651 1.06632 13.7589 1.065 13.335V5.335H14.935V13.335C14.9337 13.759 14.7648 14.1652 14.465 14.465Z" fill="#2AAA8A"/>
</svg>
