<svg width="17" height="16" viewBox="0 0 17 16" fill="none" xmlns="http://www.w3.org/2000/svg">
<path d="M16.4876 8.13061L15.121 5.85288C15.0786 5.787 15.0127 5.73978 14.9367 5.72088L11.3033 4.93088C11.311 4.90602 11.3218 4.88231 11.329 4.85716H11.7333C12.0484 4.85716 12.3047 4.60088 12.3047 4.28573V3.7143C12.3047 3.39916 12.0484 3.14287 11.7333 3.14287H11.329C11.2624 2.90788 11.1683 2.68156 11.0487 2.46858L11.335 2.18172C11.557 1.96915 11.557 1.58629 11.335 1.37372L10.931 0.969719C10.8238 0.862592 10.6785 0.802411 10.527 0.802411C10.3755 0.802411 10.2301 0.862592 10.123 0.969719L9.83612 1.25601C9.62183 1.13601 9.39611 1.04229 9.16154 0.975719V0.571431C9.16154 0.256287 8.90526 0 8.59011 0H8.01868C7.70354 0 7.44725 0.256287 7.44725 0.571431V0.975719C7.21239 1.04229 6.98696 1.13601 6.77296 1.25601L6.4861 0.969719C6.27039 0.753718 5.89381 0.753432 5.6781 0.969719L5.2741 1.37372C5.05238 1.58629 5.05209 1.96944 5.2741 2.18172L5.56038 2.4683C5.44038 2.68258 5.34667 2.9083 5.2801 3.14287H4.87609C4.56095 3.14287 4.30466 3.39916 4.30466 3.7143V4.28573C4.30466 4.60088 4.56095 4.85716 4.87609 4.85716H5.28038C5.28752 4.88231 5.29838 4.90602 5.3061 4.93088L1.67265 5.72088C1.59661 5.73972 1.53067 5.78695 1.48836 5.85288L0.121787 8.13061C-0.153928 8.56547 0.0603587 9.19376 0.544647 9.36947L1.44751 9.7229V12.7529C1.44751 13.1081 1.66122 13.4215 1.99237 13.5512L8.20068 15.9804C8.26754 16.0065 8.34182 16.0065 8.40868 15.9804L14.6173 13.5512C14.7782 13.4889 14.9164 13.3792 15.0136 13.2367C15.1109 13.0942 15.1626 12.9255 15.1619 12.7529V9.7229L16.0647 9.36947C16.549 9.19376 16.7633 8.56547 16.4876 8.13061ZM4.87609 4.28573V3.7143H5.50467C5.57053 3.71432 5.63438 3.69157 5.68541 3.64992C5.73643 3.60827 5.7715 3.55027 5.78467 3.48573C5.85026 3.16333 5.97776 2.85672 6.1601 2.58287C6.19645 2.52792 6.2127 2.4621 6.20609 2.39654C6.19948 2.33099 6.17041 2.26973 6.12381 2.22315L5.6781 1.77744L6.08239 1.37372L6.5281 1.81915C6.57468 1.86575 6.63594 1.89481 6.70149 1.90143C6.76704 1.90804 6.83287 1.89179 6.88782 1.85544C7.16152 1.67326 7.46793 1.54587 7.79011 1.48029C7.85474 1.46717 7.91285 1.43208 7.95456 1.381C7.99628 1.32991 8.01903 1.26596 8.01896 1.20001V0.571431H8.5904V1.20001C8.59038 1.26587 8.61313 1.32972 8.65478 1.38074C8.69643 1.43177 8.75443 1.46683 8.81897 1.48001C9.14137 1.5456 9.44798 1.6731 9.72183 1.85544C9.77678 1.89179 9.8426 1.90804 9.90816 1.90143C9.97371 1.89481 10.035 1.86575 10.0815 1.81915L10.5273 1.37343L10.931 1.77772L10.4855 2.22344C10.439 2.27002 10.4099 2.33127 10.4033 2.39683C10.3967 2.46238 10.4129 2.52821 10.4493 2.58315C10.6314 2.85685 10.7588 3.16327 10.8244 3.48544C10.8375 3.55003 10.8726 3.6081 10.9236 3.64981C10.9746 3.69152 11.0385 3.7143 11.1044 3.7143H11.7333V4.28573H11.1047C11.0388 4.28572 10.975 4.30846 10.924 4.35012C10.8729 4.39177 10.8379 4.44977 10.8247 4.51431C10.7591 4.8367 10.6316 5.14332 10.4493 5.41717C10.4129 5.47212 10.3967 5.53794 10.4033 5.60349C10.4099 5.66905 10.439 5.7303 10.4855 5.77688L10.9313 6.2226L10.527 6.62632L10.0813 6.18088C10.0347 6.13434 9.9734 6.1053 9.90786 6.09869C9.84232 6.09208 9.77651 6.1083 9.72154 6.1446C9.44784 6.32677 9.14143 6.45417 8.81925 6.51974C8.75467 6.53286 8.6966 6.5679 8.65489 6.61893C8.61318 6.66996 8.5904 6.73384 8.5904 6.79975V7.42861H8.01896V6.80003C8.01898 6.73416 7.99623 6.67032 7.95458 6.61929C7.91293 6.56827 7.85493 6.5332 7.79039 6.52003C7.468 6.45444 7.16138 6.32694 6.88753 6.1446C6.83258 6.10824 6.76676 6.092 6.7012 6.09861C6.63565 6.10522 6.5744 6.13429 6.52782 6.18088L6.0821 6.6266L5.67838 6.22231L6.12381 5.7766C6.17041 5.73002 6.19948 5.66876 6.20609 5.60321C6.2127 5.53765 6.19645 5.47183 6.1601 5.41688C5.97793 5.14318 5.85053 4.83677 5.78496 4.51459C5.77183 4.44996 5.73675 4.39185 5.68566 4.35014C5.63457 4.30842 5.57062 4.28567 5.50467 4.28573H4.87609ZM5.52953 5.46717C5.54067 5.48831 5.54895 5.5106 5.56095 5.53174L5.27438 5.81831C5.05238 6.03088 5.05238 6.41374 5.27438 6.62632L5.67838 7.03032C5.8941 7.2466 6.27096 7.24632 6.48639 7.03032L6.77296 6.74403C6.98725 6.86403 7.21296 6.95775 7.44753 7.02432V7.42861C7.44753 7.74375 7.70382 8.00004 8.01896 8.00004H8.5904C8.90554 8.00004 9.16183 7.74375 9.16183 7.42861V7.02432C9.39681 6.95767 9.62313 6.86359 9.83612 6.74403L10.123 7.03032C10.2301 7.13744 10.3755 7.19762 10.527 7.19762C10.6785 7.19762 10.8238 7.13744 10.931 7.03032L11.335 6.62632C11.5567 6.41374 11.557 6.0306 11.335 5.81831L11.0484 5.53174C11.0604 5.5106 11.0687 5.48831 11.0798 5.46717L13.8918 6.0786L8.30468 8.26432L2.71751 6.07803L5.52953 5.46717ZM0.61179 8.42432L1.85408 6.35403L7.88554 8.71432L6.5941 10.8675C6.5594 10.9255 6.50523 10.9693 6.44124 10.9911C6.37725 11.013 6.30759 11.0114 6.24467 10.9866L0.752647 8.83747C0.591504 8.77947 0.519218 8.56947 0.61179 8.42432ZM2.01894 12.7529V9.94662L6.03667 11.5186C6.41953 11.6706 6.86753 11.5243 7.08382 11.1615L8.01896 9.6029V15.2958L2.20065 13.0189C2.14701 12.9982 2.10093 12.9616 2.06848 12.9141C2.03604 12.8666 2.01876 12.8104 2.01894 12.7529ZM14.5904 12.7529C14.5904 12.8712 14.519 12.9758 14.409 13.0189L8.5904 15.2958V9.6029L9.52554 11.1615C9.6296 11.3353 9.79193 11.4666 9.98366 11.532C10.1754 11.5974 10.3841 11.5926 10.5727 11.5186L14.5904 9.94662V12.7529ZM15.8567 8.83747L10.3647 10.9866C10.3018 11.0113 10.2322 11.0129 10.1683 10.991C10.1044 10.9692 10.0502 10.9254 10.0155 10.8675L8.72354 8.71432L14.7553 6.35431L15.9976 8.42432C16.0901 8.56947 16.0176 8.77947 15.8567 8.83747ZM8.30468 5.71431C9.25011 5.71431 10.019 4.94545 10.019 4.00002C10.019 3.05459 9.25011 2.28572 8.30468 2.28572C7.35925 2.28572 6.59039 3.05459 6.59039 4.00002C6.59039 4.94545 7.35925 5.71431 8.30468 5.71431ZM8.30468 2.85716C8.93497 2.85716 9.44754 3.36973 9.44754 4.00002C9.44754 4.63031 8.93497 5.14288 8.30468 5.14288C7.67439 5.14288 7.16182 4.63031 7.16182 4.00002C7.16182 3.36973 7.67439 2.85716 8.30468 2.85716Z" fill="#2AAA8A"/>
</svg>
