<svg width="71" height="70" viewBox="0 0 71 70" fill="none" xmlns="http://www.w3.org/2000/svg">
<path d="M34.9602 50.7761C34.2114 50.7761 33.4801 50.4452 32.9925 49.8706L26.0622 41.8781C25.1219 40.781 25.2438 39.1442 26.3234 38.1865C27.4204 37.2462 29.0572 37.3681 30.0149 38.4477L34.6816 43.8283L40.7935 34.5298C41.5771 33.3283 43.2139 32.9975 44.4154 33.781C45.6169 34.5646 45.9477 36.2014 45.1642 37.4029L37.1542 49.592C36.7015 50.2711 35.9527 50.7064 35.1517 50.7587C35.0821 50.7761 35.0124 50.7761 34.9602 50.7761Z" fill="white"/>
<path d="M67.8881 0H3.11194C1.66667 0 0.5 1.16667 0.5 2.61194V67.3881C0.5 68.8333 1.66667 70 3.11194 70H67.8881C69.3333 70 70.5 68.8333 70.5 67.3881V2.61194C70.5 1.16667 69.3333 0 67.8881 0ZM41.9428 5.22388V15.4975H29.0572V5.22388H41.9428ZM65.2761 64.7761H5.72388V5.22388H23.8333V18.1095C23.8333 19.5547 25 20.7214 26.4453 20.7214H44.5547C46 20.7214 47.1667 19.5547 47.1667 18.1095V5.22388H65.2761V64.7761Z" fill="white"/>
</svg>
