<svg width="39" height="40" viewBox="0 0 39 40" fill="none" xmlns="http://www.w3.org/2000/svg">
<path d="M34.6014 19.7805L30.3584 12.7442C30.1976 12.4764 29.9768 12.2563 29.7162 12.1041C29.4556 11.9519 29.1636 11.8725 28.8669 11.8732H10.1464C9.85017 11.8725 9.55852 11.9518 9.29818 12.1035C9.03784 12.2553 8.81713 12.4748 8.65625 12.742L4.40007 19.7792C3.96513 20.4982 4.03231 21.4476 4.56346 22.0877L18.1725 38.4951C18.3392 38.696 18.5436 38.8568 18.7723 38.9669C19.0009 39.077 19.2486 39.134 19.4992 39.1342C19.7498 39.134 19.9977 39.0771 20.2263 38.9669C20.455 38.8568 20.6594 38.6961 20.8262 38.4952L34.4367 22.0868C34.9671 21.4474 35.0348 20.499 34.6014 19.7805ZM28.0074 13.5091L24.4391 19.4346L20.8686 13.5091H28.0074ZM23.0391 20.1227H15.9594L19.4992 14.248L23.0391 20.1227ZM18.1299 13.5092L14.5692 19.4185L11.0098 13.5092H18.1299ZM9.60131 14.1829L13.1791 20.1227H6.00882L9.60131 14.1829ZM6.33057 21.7587H13.9969L18.0504 35.8884L6.33057 21.7587ZM19.4992 35.3819L15.5909 21.7587H23.4075L19.4992 35.3819ZM20.948 35.8889L25.0017 21.7588H32.6687L20.948 35.8889ZM25.839 20.1227L29.4135 14.1869L32.9928 20.1227H25.839ZM2.31052 20.1227H0.761719C0.341098 20.1227 0 20.489 0 20.9407C0 21.3925 0.341098 21.7587 0.761719 21.7587H2.31052C2.73114 21.7587 3.07224 21.3925 3.07224 20.9407C3.07224 20.489 2.73114 20.1227 2.31052 20.1227ZM38.2383 20.1227H36.6895C36.2689 20.1227 35.9278 20.489 35.9278 20.9407C35.9278 21.3925 36.2689 21.7587 36.6895 21.7587H38.2383C38.6589 21.7587 39 21.3925 39 20.9407C39 20.489 38.6589 20.1227 38.2383 20.1227ZM33.2982 6.13768C33.0007 5.81825 32.5185 5.81825 32.2209 6.13768L29.6907 8.85483C29.3933 9.17425 29.3933 9.69221 29.6907 10.0116C29.7614 10.0877 29.8454 10.148 29.9378 10.1892C30.0303 10.2303 30.1294 10.2514 30.2294 10.2512C30.3295 10.2514 30.4286 10.2303 30.521 10.1891C30.6134 10.148 30.6974 10.0877 30.768 10.0116L33.2982 7.2945C33.5957 6.97507 33.5957 6.45719 33.2982 6.13768ZM9.34218 8.84027L6.81205 6.12304C6.51468 5.80361 6.03251 5.80361 5.73475 6.12304C5.4373 6.44247 5.4373 6.96042 5.73475 7.27985L8.26495 9.997C8.3356 10.0731 8.41956 10.1334 8.51199 10.1745C8.60443 10.2156 8.70352 10.2367 8.80356 10.2366C8.90361 10.2367 9.0027 10.2156 9.09513 10.1745C9.18756 10.1334 9.27151 10.0731 9.34218 9.997C9.63963 9.67765 9.63963 9.15961 9.34218 8.84027ZM19.5193 0C19.0987 0 18.7576 0.366218 18.7576 0.817998V6.14873C18.7576 6.60051 19.0986 6.96672 19.5193 6.96672C19.94 6.96672 20.2811 6.60051 20.2811 6.14873V0.817998C20.2811 0.366299 19.94 0 19.5193 0ZM20.0575 8.33761C19.9159 8.18546 19.7194 8.09793 19.519 8.09793C19.3187 8.09793 19.1222 8.18546 18.9805 8.33761C18.8382 8.49136 18.758 8.69914 18.7573 8.91593C18.7573 9.13188 18.8388 9.34211 18.9805 9.49426C19.1222 9.64722 19.3187 9.73393 19.519 9.73393C19.7194 9.73393 19.9159 9.64722 20.0575 9.49426C20.1999 9.34211 20.2808 9.13106 20.2808 8.91593C20.2808 8.7008 20.1999 8.48983 20.0575 8.33761Z" fill="#0047AD"/>
</svg>
