<svg width="25" height="25" viewBox="0 0 25 25" fill="none" xmlns="http://www.w3.org/2000/svg">
<path fill-rule="evenodd" clip-rule="evenodd" d="M5.46735 2.07325C7.4904 0.721496 9.86885 0 12.3019 0C15.5646 0 18.6937 1.29609 21.0007 3.60316C23.3078 5.91022 24.6039 9.03926 24.6039 12.3019C24.6039 14.735 23.8824 17.1135 22.5306 19.1365C21.1789 21.1596 19.2576 22.7363 17.0097 23.6675C14.7618 24.5986 12.2883 24.8422 9.90196 24.3675C7.51561 23.8928 5.32362 22.7212 3.60316 21.0007C1.8827 19.2803 0.711057 17.0883 0.236384 14.7019C-0.238289 12.3156 0.00533021 9.84208 0.936435 7.59419C1.86754 5.34631 3.44431 3.42501 5.46735 2.07325ZM18.5907 15.4168C18.7137 15.1195 18.7769 14.8008 18.7767 14.4791V10.1248C18.7769 9.80307 18.7137 9.48443 18.5907 9.18711C18.4677 8.88979 18.2874 8.61962 18.0599 8.39203C17.8325 8.16444 17.5624 7.9839 17.2652 7.86072C16.9679 7.73755 16.6493 7.67415 16.3276 7.67415H8.2763C7.95455 7.67415 7.63595 7.73755 7.33871 7.86072C7.04147 7.9839 6.77142 8.16444 6.54398 8.39203C6.31654 8.61962 6.13618 8.88979 6.0132 9.18711C5.89022 9.48443 5.82703 9.80307 5.82724 10.1248V14.4791C5.82703 14.8008 5.89022 15.1195 6.0132 15.4168C6.13618 15.7141 6.31654 15.9843 6.54398 16.2119C6.77142 16.4394 7.04147 16.62 7.33871 16.7432C7.63595 16.8663 7.95455 16.9297 8.2763 16.9297H16.3276C16.6493 16.9297 16.9679 16.8663 17.2652 16.7432C17.5624 16.62 17.8325 16.4394 18.0599 16.2119C18.2874 15.9843 18.4677 15.7141 18.5907 15.4168ZM14.008 12.3063L10.5959 14.2859V10.3169L14.008 12.3063Z" fill="#0047AD"/>
</svg>
