<svg width="113" height="120" viewBox="0 0 113 120" fill="none" xmlns="http://www.w3.org/2000/svg">
<path d="M110.127 75.4649C104.946 66.4916 93.4912 63.4206 84.5162 68.6027L74.9964 74.0987V53.7466C74.9964 51.2306 74.1644 48.7338 72.6529 46.7158L60.9349 31.0922V24.4392C63.6625 23.4717 65.6221 20.8669 65.6221 17.8113V7.03077C65.6217 3.15398 62.4677 0 58.5909 0H16.4055C12.5287 0 9.37452 3.15398 9.37452 7.03077V17.8115C9.37452 20.8666 11.3341 23.4719 14.0618 24.4394V31.0924L2.34281 46.717C0.83203 48.734 0 51.2306 0 53.7466V99.1356C0 105.597 5.25679 110.854 11.718 110.854H49.3825C54.6374 119.662 65.9685 122.61 74.8506 117.482L103.265 101.076C112.161 95.939 115.334 84.4872 110.127 75.4649ZM14.0618 7.03077C14.0618 5.73843 15.1132 4.68703 16.4053 4.68703H58.5906C59.883 4.68703 60.9344 5.73843 60.9344 7.03077V17.8115C60.9344 19.1039 59.883 20.1551 58.5906 20.1551H16.4055C15.1132 20.1551 14.062 19.1037 14.062 17.8115L14.0618 7.03077ZM6.09374 49.5278L18.2803 33.2796C18.5846 32.8739 18.7491 32.3804 18.749 31.8733V24.8426H56.2471V29.5298H35.1546C33.8604 29.5298 32.8108 30.5793 32.8108 31.8736C32.8108 33.1678 33.8604 34.2173 35.1546 34.2173H57.419L68.9017 49.5271C69.6522 50.5291 70.1184 51.7279 70.2592 52.9664H4.73718C4.87781 51.7277 5.34398 50.5289 6.09374 49.5278ZM11.7183 106.166C7.84148 106.166 4.6875 103.012 4.6875 99.1356V96.7686H47.2675C46.5243 99.8073 46.5292 103.053 47.3803 106.167H11.7183V106.166ZM49.1057 92.1046H4.68726V57.6531H70.3089V76.8046L56.1013 85.0082C53.1391 86.7194 50.7447 89.1552 49.1057 92.1046ZM72.5074 113.422C65.7815 117.306 57.187 115.009 53.3006 108.279C49.3957 101.483 51.7621 92.9275 58.4456 89.0671L71.1667 81.7223L85.2285 106.077L72.5074 113.422ZM100.922 97.0168L89.2879 103.734L75.2259 79.3783L86.8598 72.662C93.5901 68.7766 102.182 71.0774 106.068 77.8082C109.971 84.5727 107.598 93.1616 100.922 97.0168Z" fill="white"/>
</svg>
