<svg width="25" height="25" viewBox="0 0 25 25" fill="none" xmlns="http://www.w3.org/2000/svg">
<path d="M14.2136 12.54C14.2062 12.9279 14.0838 13.3048 13.862 13.623C13.6402 13.9412 13.3288 14.1863 12.9675 14.3274C12.6062 14.4684 12.2111 14.4991 11.8323 14.4153C11.4536 14.3316 11.1082 14.1373 10.84 13.8571C10.5718 13.5768 10.3929 13.2233 10.3258 12.8412C10.2588 12.4592 10.3067 12.0658 10.4635 11.711C10.6203 11.3562 10.8789 11.056 11.2065 10.8483C11.5341 10.6406 11.916 10.5349 12.3038 10.5445C12.8191 10.5636 13.3067 10.7826 13.6632 11.1552C14.0197 11.5277 14.2171 12.0244 14.2136 12.54Z" fill="#0047AD"/>
<path d="M15.6252 6.40658H8.98368C8.3265 6.40658 7.69625 6.66764 7.23156 7.13233C6.76687 7.59702 6.50581 8.22727 6.50581 8.88444V15.6753C6.50581 16.0007 6.5699 16.3229 6.69442 16.6236C6.81895 16.9242 7.00147 17.1973 7.23156 17.4274C7.46165 17.6575 7.73481 17.84 8.03544 17.9646C8.33607 18.0891 8.65828 18.1532 8.98368 18.1532H15.6252C15.9506 18.1532 16.2728 18.0891 16.5734 17.9646C16.8741 17.84 17.1472 17.6575 17.3773 17.4274C17.6074 17.1973 17.7899 16.9242 17.9144 16.6236C18.039 16.3229 18.1031 16.0007 18.1031 15.6753V8.89669C18.1043 8.57035 18.0412 8.24697 17.9173 7.94507C17.7934 7.64317 17.6111 7.3687 17.3809 7.13737C17.1507 6.90605 16.8772 6.72242 16.5759 6.59702C16.2746 6.47161 15.9515 6.4069 15.6252 6.40658ZM12.3038 15.8614C11.6464 15.8762 10.9994 15.6949 10.4455 15.3404C9.89155 14.9859 9.45581 14.4744 9.19386 13.8712C8.93191 13.268 8.85563 12.6004 8.97476 11.9537C9.09388 11.3069 9.40301 10.7104 9.86269 10.2401C10.3224 9.76978 10.9117 9.44711 11.5556 9.31326C12.1995 9.17941 12.8686 9.24043 13.4776 9.48855C14.0867 9.73666 14.608 10.1606 14.975 10.7063C15.342 11.252 15.5381 11.8946 15.5383 12.5523C15.5433 12.982 15.4636 13.4084 15.3037 13.8073C15.1439 14.2062 14.907 14.5697 14.6066 14.877C14.3063 15.1843 13.9483 15.4294 13.5532 15.5983C13.158 15.7672 12.7335 15.8566 12.3038 15.8614ZM15.8982 9.24437C15.8174 9.24439 15.7374 9.22829 15.663 9.19701C15.5885 9.16573 15.521 9.1199 15.4644 9.06221C15.4079 9.00453 15.3634 8.93613 15.3336 8.86104C15.3038 8.78595 15.2893 8.70567 15.291 8.62491C15.291 8.46061 15.3562 8.30305 15.4724 8.18688C15.5886 8.0707 15.7461 8.00544 15.9104 8.00544C16.0747 8.00544 16.2323 8.0707 16.3485 8.18688C16.4646 8.30305 16.5299 8.46061 16.5299 8.62491C16.5323 8.71236 16.5158 8.79931 16.4816 8.8798C16.4473 8.96029 16.396 9.03241 16.3312 9.09124C16.2665 9.15007 16.1898 9.19421 16.1064 9.22064C16.023 9.24707 15.9348 9.25517 15.848 9.24437H15.8982Z" fill="#0047AD"/>
<path d="M12.3038 0.000153243C9.0569 -0.0160812 5.93654 1.25817 3.62916 3.54259C1.32178 5.82701 0.0163877 8.93447 0.000153243 12.1814C-0.0160812 15.4283 1.25817 18.5486 3.54259 20.856C5.82701 23.1634 8.93447 24.4688 12.1814 24.485C13.7891 24.493 15.3826 24.1843 16.871 23.5765C18.3594 22.9687 19.7135 22.0737 20.856 20.9426C21.9985 19.8114 22.907 18.4664 23.5297 16.9841C24.1524 15.5019 24.477 13.9115 24.485 12.3038C24.493 10.6961 24.1843 9.10256 23.5765 7.61416C22.9687 6.12576 22.0737 4.77166 20.9426 3.62916C19.8114 2.48666 18.4664 1.57814 16.9841 0.955477C15.5019 0.332811 13.9115 0.00819174 12.3038 0.000153243ZM19.7386 15.5505C19.742 16.0997 19.6364 16.6442 19.4278 17.1523C19.2192 17.6604 18.9119 18.122 18.5236 18.5105C18.1353 18.8989 17.6737 19.2064 17.1656 19.4151C16.6576 19.6238 16.1132 19.7296 15.564 19.7264H9.04608C8.49694 19.7295 7.95264 19.6236 7.44468 19.4149C6.93673 19.2062 6.47521 18.8988 6.08684 18.5106C5.69847 18.1223 5.39097 17.6609 5.18213 17.153C4.9733 16.6451 4.86727 16.1009 4.87019 15.5517V9.03262C4.86678 8.48338 4.97242 7.93893 5.18099 7.43083C5.38957 6.92272 5.69692 6.46108 6.08524 6.07264C6.47356 5.68421 6.93512 5.37672 7.44316 5.168C7.9512 4.95928 8.49562 4.85347 9.04486 4.85672H15.564C16.1131 4.85348 16.6574 4.95924 17.1654 5.16788C17.6733 5.37653 18.1348 5.68391 18.5231 6.07221C18.9114 6.46052 19.2188 6.92202 19.4275 7.42998C19.6361 7.93794 19.7419 8.48226 19.7386 9.03139V15.5505Z" fill="#0047AD"/>
</svg>
