<svg width="23" height="22" viewBox="0 0 23 22" fill="none" xmlns="http://www.w3.org/2000/svg">
<path d="M11.1422 0C8.96822 0 6.84307 0.644658 5.03548 1.85245C3.22789 3.06025 1.81904 4.77693 0.987097 6.78542C0.155153 8.79391 -0.0625211 11.004 0.3616 13.1362C0.785721 15.2684 1.83259 17.2269 3.36982 18.7642C4.90705 20.3014 6.8656 21.3483 8.9978 21.7724C11.13 22.1965 13.3401 21.9788 15.3486 21.1469C17.3571 20.315 19.0737 18.9061 20.2815 17.0985C21.4893 15.2909 22.134 13.1658 22.134 10.9918C22.134 8.07659 20.9759 5.28079 18.9146 3.21942C16.8532 1.15806 14.0574 0 11.1422 0ZM7.9459 16.777H5.54795V9.05233H7.9459V16.777ZM6.74548 7.99798C6.4695 7.99912 6.19939 7.91842 5.96927 7.76608C5.73916 7.61373 5.55937 7.39659 5.45264 7.14209C5.34591 6.88759 5.31703 6.60716 5.36964 6.33624C5.42225 6.06533 5.554 5.8161 5.74823 5.62005C5.94247 5.424 6.19046 5.28993 6.46087 5.23479C6.73128 5.17966 7.01197 5.20592 7.26745 5.31028C7.52294 5.41463 7.74175 5.59239 7.89623 5.82107C8.05071 6.04976 8.13393 6.31911 8.13536 6.59508C8.13613 6.96514 7.99036 7.32045 7.72991 7.58334C7.46946 7.84623 7.11553 7.99531 6.74548 7.99798ZM16.9274 16.777H14.5309V13.0166C14.5309 12.1199 14.5135 10.9701 13.2842 10.9701C12.0548 10.9701 11.8379 11.9449 11.8379 12.9515V16.777H9.45004V9.05233H11.7511V10.1052H11.7843C12.104 9.49778 12.8864 8.85708 14.0536 8.85708C16.4804 8.85708 16.9274 10.4567 16.9274 12.5335V16.777Z" fill="#2AAA8A"/>
</svg>
