<svg width="34" height="32" viewBox="0 0 34 32" fill="none" xmlns="http://www.w3.org/2000/svg">
<path d="M32.9751 16.2612L30.242 11.7058C30.1573 11.574 30.0254 11.4796 29.8734 11.4418L22.6065 9.86176C22.622 9.81204 22.6437 9.76462 22.658 9.71433H23.4665C24.0968 9.71433 24.6094 9.20176 24.6094 8.57147V7.42861C24.6094 6.79832 24.0968 6.28574 23.4665 6.28574H22.658C22.5247 5.81576 22.3366 5.36312 22.0974 4.93717L22.67 4.36345C23.114 3.9383 23.114 3.17259 22.67 2.74744L21.862 1.93944C21.6476 1.72518 21.357 1.60482 21.054 1.60482C20.7509 1.60482 20.4603 1.72518 20.2459 1.93944L19.6722 2.51201C19.2437 2.27201 18.7922 2.08458 18.3231 1.95144V1.14286C18.3231 0.512574 17.8105 0 17.1802 0H16.0374C15.4071 0 14.8945 0.512574 14.8945 1.14286V1.95144C14.4248 2.08458 13.9739 2.27201 13.5459 2.51201L12.9722 1.93944C12.5408 1.50744 11.7876 1.50686 11.3562 1.93944L10.5482 2.74744C10.1048 3.17259 10.1042 3.93887 10.5482 4.36345L11.1208 4.93659C10.8808 5.36517 10.6933 5.8166 10.5602 6.28574H9.75219C9.1219 6.28574 8.60933 6.79832 8.60933 7.42861V8.57147C8.60933 9.20176 9.1219 9.71433 9.75219 9.71433H10.5608C10.575 9.76462 10.5968 9.81204 10.6122 9.86176L3.3453 11.4418C3.19323 11.4794 3.06135 11.5739 2.97673 11.7058L0.243575 16.2612C-0.307856 17.1309 0.120717 18.3875 1.08929 18.7389L2.89502 19.4458V25.5058C2.89502 26.2161 3.32245 26.843 3.98473 27.1024L16.4014 31.9607C16.5351 32.0131 16.6836 32.0131 16.8174 31.9607L29.2346 27.1024C29.5564 26.9778 29.8328 26.7585 30.0273 26.4734C30.2218 26.1883 30.3251 25.8509 30.3237 25.5058V19.4458L32.1294 18.7389C33.098 18.3875 33.5266 17.1309 32.9751 16.2612ZM9.75219 8.57147V7.42861H11.0093C11.1411 7.42863 11.2688 7.38314 11.3708 7.29984C11.4729 7.21654 11.543 7.10053 11.5693 6.97146C11.7005 6.32667 11.9555 5.71344 12.3202 5.16574C12.3929 5.05584 12.4254 4.92419 12.4122 4.79308C12.399 4.66198 12.3408 4.53947 12.2476 4.44631L11.3562 3.55487L12.1648 2.74744L13.0562 3.6383C13.1494 3.73149 13.2719 3.78963 13.403 3.80285C13.5341 3.81608 13.6657 3.78358 13.7756 3.71087C14.323 3.34653 14.9359 3.09173 15.5802 2.96058C15.7095 2.93433 15.8257 2.86417 15.9091 2.76199C15.9926 2.65982 16.0381 2.53192 16.0379 2.40001V1.14286H17.1808V2.40001C17.1808 2.53174 17.2263 2.65944 17.3096 2.76149C17.3929 2.86354 17.5089 2.93367 17.6379 2.96001C18.2827 3.0912 18.896 3.34619 19.4437 3.71087C19.5536 3.78358 19.6852 3.81608 19.8163 3.80285C19.9474 3.78963 20.0699 3.73149 20.1631 3.6383L21.0545 2.74687L21.862 3.55544L20.9711 4.44688C20.8779 4.54004 20.8198 4.66255 20.8065 4.79365C20.7933 4.92476 20.8258 5.05641 20.8985 5.16631C21.2629 5.71371 21.5177 6.32653 21.6488 6.97089C21.675 7.10006 21.7451 7.2162 21.8472 7.29962C21.9492 7.38304 22.077 7.42861 22.2088 7.42861H23.4665V8.57147H22.2094C22.0777 8.57144 21.95 8.61693 21.8479 8.70023C21.7459 8.78354 21.6757 8.89954 21.6494 9.02861C21.5182 9.6734 21.2632 10.2866 20.8985 10.8343C20.8258 10.9442 20.7933 11.0759 20.8065 11.207C20.8198 11.3381 20.8779 11.4606 20.9711 11.5538L21.8625 12.4452L21.054 13.2526L20.1625 12.3618C20.0693 12.2687 19.9468 12.2106 19.8157 12.1974C19.6846 12.1842 19.553 12.2166 19.4431 12.2892C18.8957 12.6535 18.2829 12.9083 17.6385 13.0395C17.5093 13.0657 17.3932 13.1358 17.3098 13.2379C17.2264 13.3399 17.1808 13.4677 17.1808 13.5995V14.8572H16.0379V13.6001C16.038 13.4683 15.9925 13.3406 15.9092 13.2386C15.8259 13.1365 15.7099 13.0664 15.5808 13.0401C14.936 12.9089 14.3228 12.6539 13.7751 12.2892C13.6652 12.2165 13.5335 12.184 13.4024 12.1972C13.2713 12.2104 13.1488 12.2686 13.0556 12.3618L12.1642 13.2532L11.3568 12.4446L12.2476 11.5532C12.3408 11.46 12.399 11.3375 12.4122 11.2064C12.4254 11.0753 12.3929 10.9437 12.3202 10.8338C11.9559 10.2864 11.7011 9.67354 11.5699 9.02918C11.5437 8.89991 11.4735 8.7837 11.3713 8.70027C11.2691 8.61684 11.1412 8.57134 11.0093 8.57147H9.75219ZM11.0591 10.9343C11.0813 10.9766 11.0979 11.0212 11.1219 11.0635L10.5488 11.6366C10.1048 12.0618 10.1048 12.8275 10.5488 13.2526L11.3568 14.0606C11.7882 14.4932 12.5419 14.4926 12.9728 14.0606L13.5459 13.4881C13.9745 13.7281 14.4259 13.9155 14.8951 14.0486V14.8572C14.8951 15.4875 15.4076 16.0001 16.0379 16.0001H17.1808C17.8111 16.0001 18.3237 15.4875 18.3237 14.8572V14.0486C18.7936 13.9153 19.2463 13.7272 19.6722 13.4881L20.2459 14.0606C20.4603 14.2749 20.7509 14.3952 21.054 14.3952C21.357 14.3952 21.6476 14.2749 21.862 14.0606L22.67 13.2526C23.1134 12.8275 23.114 12.0612 22.67 11.6366L22.0968 11.0635C22.1208 11.0212 22.1374 10.9766 22.1597 10.9343L27.7837 12.1572L16.6094 16.5286L5.43503 12.1561L11.0591 10.9343ZM1.22358 16.8486L3.70816 12.7081L15.7711 17.4286L13.1882 21.735C13.1188 21.851 13.0105 21.9387 12.8825 21.9823C12.7545 22.0259 12.6152 22.0227 12.4893 21.9732L1.50529 17.6749C1.18301 17.5589 1.03844 17.1389 1.22358 16.8486ZM4.03788 25.5058V19.8932L12.0733 23.0372C12.8391 23.3412 13.7351 23.0487 14.1676 22.323L16.0379 19.2058V30.5916L4.40131 26.0378C4.29402 25.9963 4.20185 25.9233 4.13697 25.8283C4.07208 25.7333 4.03753 25.6209 4.03788 25.5058ZM29.1808 25.5058C29.1808 25.7424 29.038 25.9515 28.818 26.0378L17.1808 30.5916V19.2058L19.0511 22.323C19.2592 22.6706 19.5839 22.9331 19.9673 23.0639C20.3508 23.1947 20.7682 23.1853 21.1454 23.0372L29.1808 19.8932V25.5058ZM31.7134 17.6749L20.7294 21.9732C20.6036 22.0226 20.4644 22.0257 20.3366 21.9821C20.2087 21.9384 20.1005 21.8509 20.0311 21.735L17.4471 17.4286L29.5106 12.7086L31.9951 16.8486C32.1803 17.1389 32.0351 17.5589 31.7134 17.6749ZM16.6094 11.4286C18.5002 11.4286 20.0379 9.8909 20.0379 8.00004C20.0379 6.10917 18.5002 4.57145 16.6094 4.57145C14.7185 4.57145 13.1808 6.10917 13.1808 8.00004C13.1808 9.8909 14.7185 11.4286 16.6094 11.4286ZM16.6094 5.71431C17.8699 5.71431 18.8951 6.73946 18.8951 8.00004C18.8951 9.26061 17.8699 10.2858 16.6094 10.2858C15.3488 10.2858 14.3236 9.26061 14.3236 8.00004C14.3236 6.73946 15.3488 5.71431 16.6094 5.71431Z" fill="#2AAA8A"/>
</svg>
