<svg width="26" height="27" viewBox="0 0 26 27" fill="none" xmlns="http://www.w3.org/2000/svg">
<path d="M13.045 9.29172C13.4029 9.29172 13.6928 8.9947 13.6928 8.62828C13.6928 8.26192 13.4029 7.96484 13.045 7.96484C10.1833 7.96484 7.86328 10.341 7.86328 13.2723C7.86328 16.2034 10.1833 18.5796 13.045 18.5796C15.9071 18.5796 18.2271 16.2034 18.2271 13.2723C18.2271 12.9058 17.937 12.6089 17.5793 12.6089C17.2216 12.6089 16.9316 12.9058 16.9316 13.2723C16.9316 15.4707 15.1917 17.2529 13.045 17.2529C10.8987 17.2529 9.15858 15.4707 9.15858 13.2723C9.15858 11.0738 10.8987 9.29172 13.045 9.29172Z" fill="#0047AD"/>
<path d="M25.4042 9.33178C25.2916 8.98368 24.925 8.79496 24.585 8.91012C24.2529 9.02269 24.0679 9.38479 24.167 9.72837C26.104 16.0464 22.6739 22.7764 16.5053 24.7604C10.3369 26.7444 3.76602 23.2312 1.82897 16.9132C-0.108341 10.5952 3.32204 3.8652 9.4904 1.88118C11.7737 1.14684 14.222 1.14684 16.5053 1.88118C16.8481 1.98704 17.2098 1.78833 17.3132 1.43721C17.415 1.09134 17.2283 0.725812 16.8928 0.614077C10.0433 -1.58696 2.74849 2.31585 0.599543 9.33137C-1.54945 16.3467 2.26123 23.8182 9.1107 26.0192C15.9603 28.2202 23.255 24.3174 25.4039 17.3019C26.1986 14.7075 26.1987 11.9262 25.4041 9.33178H25.4042Z" fill="#0047AD"/>
<path d="M14.2789 4.73977C14.2823 4.36202 13.999 4.04627 13.6312 4.01802C13.4377 4.00117 13.2441 3.98431 13.0455 3.98431C8.03711 3.98431 3.97705 8.1427 3.97705 13.2724C3.97705 18.4019 8.03711 22.5603 13.0455 22.5603C18.0537 22.5603 22.1138 18.4019 22.1138 13.2724C22.1138 13.0324 22.0995 12.7927 22.0707 12.5545C22.0189 12.1904 21.6888 11.9382 21.3333 11.9913C20.9778 12.0441 20.7316 12.3824 20.7832 12.7466C20.7851 12.7603 20.7875 12.7739 20.7903 12.7878C20.8044 12.9485 20.8182 13.1078 20.8182 13.272C20.8185 17.6689 17.3385 21.2332 13.0457 21.2336C8.75271 21.2338 5.27271 17.6693 5.27255 13.2726C5.27235 8.87584 8.7521 5.31135 13.0451 5.31119H13.0453C13.206 5.31119 13.3617 5.32539 13.5183 5.33959L13.6396 5.35C13.9782 5.36482 14.2642 5.09579 14.2785 4.74914C14.2787 4.74586 14.2787 4.74284 14.2789 4.73977Z" fill="#0047AD"/>
<path d="M16.9318 5.9745V8.35355L12.5874 12.8031C12.3301 13.0577 12.323 13.4778 12.5715 13.7413C12.8201 14.0048 13.2302 14.0121 13.4875 13.7576C13.4929 13.7523 13.4982 13.7468 13.5034 13.7413L17.8478 9.2917H20.1705C20.3423 9.2917 20.507 9.22179 20.6286 9.09726L24.5149 5.11662C24.7678 4.85757 24.7678 4.43758 24.5149 4.17847C24.4548 4.11689 24.3834 4.06803 24.3048 4.03471C24.2262 4.00138 24.142 3.98423 24.057 3.98424H22.1137V1.99392C22.1137 1.62756 21.8237 1.33048 21.4658 1.33069C21.2941 1.33073 21.1295 1.4006 21.0081 1.52492L17.1216 5.50556C17.0614 5.5671 17.0137 5.6402 16.9811 5.72067C16.9485 5.80114 16.9318 5.88739 16.9318 5.9745ZM18.2273 6.24926L20.8182 3.59551V4.64768C20.8182 5.01404 21.1083 5.31112 21.466 5.31112H22.4933L19.9023 7.96482H18.2273V6.24926Z" fill="#0047AD"/>
</svg>
