<svg width="26" height="27" viewBox="0 0 26 27" fill="none" xmlns="http://www.w3.org/2000/svg">
<path d="M13.0452 9.29172C13.4031 9.29172 13.6929 8.9947 13.6929 8.62828C13.6929 8.26192 13.4031 7.96484 13.0452 7.96484C10.1834 7.96484 7.8634 10.341 7.8634 13.2723C7.8634 16.2034 10.1834 18.5796 13.0452 18.5796C15.9072 18.5796 18.2272 16.2034 18.2272 13.2723C18.2272 12.9058 17.9371 12.6089 17.5794 12.6089C17.2217 12.6089 16.9317 12.9058 16.9317 13.2723C16.9317 15.4707 15.1918 17.2529 13.0452 17.2529C10.8988 17.2529 9.1587 15.4707 9.1587 13.2723C9.1587 11.0738 10.8988 9.29172 13.0452 9.29172Z" fill="#2AAA8A"/>
<path d="M25.4042 9.33178C25.2916 8.98368 24.925 8.79496 24.585 8.91012C24.2529 9.02269 24.0679 9.38479 24.167 9.72837C26.104 16.0464 22.6739 22.7764 16.5053 24.7604C10.3369 26.7444 3.76602 23.2312 1.82897 16.9132C-0.108341 10.5952 3.32204 3.8652 9.4904 1.88118C11.7737 1.14684 14.222 1.14684 16.5053 1.88118C16.8481 1.98704 17.2098 1.78833 17.3132 1.43721C17.415 1.09134 17.2283 0.725812 16.8928 0.614077C10.0433 -1.58696 2.74849 2.31585 0.599543 9.33137C-1.54945 16.3467 2.26123 23.8182 9.1107 26.0192C15.9603 28.2202 23.255 24.3174 25.4039 17.3019C26.1986 14.7075 26.1987 11.9262 25.4041 9.33178H25.4042Z" fill="#2AAA8A"/>
<path d="M14.2788 4.73983C14.2822 4.36208 13.9989 4.04633 13.6311 4.01808C13.4376 4.00123 13.244 3.98438 13.0454 3.98438C8.03701 3.98438 3.97696 8.14276 3.97696 13.2724C3.97696 18.4019 8.03701 22.5603 13.0454 22.5603C18.0536 22.5603 22.1137 18.4019 22.1137 13.2725C22.1137 13.0325 22.0994 12.7927 22.0706 12.5546C22.0188 12.1904 21.6887 11.9383 21.3332 11.9913C20.9777 12.0441 20.7315 12.3825 20.7831 12.7466C20.785 12.7604 20.7874 12.774 20.7902 12.7878C20.8043 12.9486 20.8182 13.1078 20.8182 13.2721C20.8184 17.669 17.3384 21.2332 13.0456 21.2336C8.75262 21.2339 5.27262 17.6694 5.27246 13.2726C5.27226 8.8759 8.75201 5.31141 13.045 5.31125H13.0452C13.2059 5.31125 13.3616 5.32545 13.5182 5.33966L13.6396 5.35006C13.9781 5.36488 14.2641 5.09585 14.2784 4.7492C14.2786 4.74592 14.2786 4.7429 14.2788 4.73983Z" fill="#2AAA8A"/>
<path d="M16.9317 5.9745V8.35355L12.5872 12.8031C12.3299 13.0577 12.3228 13.4778 12.5714 13.7413C12.82 14.0048 13.2301 14.0121 13.4874 13.7576C13.4927 13.7523 13.4981 13.7468 13.5033 13.7413L17.8477 9.2917H20.1704C20.3422 9.2917 20.5068 9.22179 20.6285 9.09726L24.5148 5.11662C24.7677 4.85757 24.7677 4.43758 24.5148 4.17847C24.4546 4.11689 24.3833 4.06803 24.3047 4.03471C24.2261 4.00138 24.1419 3.98423 24.0569 3.98424H22.1136V1.99392C22.1136 1.62756 21.8236 1.33048 21.4657 1.33069C21.294 1.33073 21.1294 1.4006 21.008 1.52492L17.1215 5.50556C17.0613 5.5671 17.0136 5.6402 16.981 5.72067C16.9484 5.80114 16.9316 5.88739 16.9317 5.9745ZM18.2272 6.24926L20.8181 3.59551V4.64768C20.8181 5.01404 21.1082 5.31112 21.4659 5.31112H22.4932L19.9022 7.96482H18.2272V6.24926Z" fill="#2AAA8A"/>
</svg>
