<svg width="77" height="77" viewBox="0 0 77 77" fill="none" xmlns="http://www.w3.org/2000/svg">
<path d="M38.5 0C17.2721 0 0 17.2721 0 38.5C0 59.7279 17.2721 77 38.5 77C59.7279 77 77 59.7279 77 38.5C77 17.2721 59.7279 0 38.5 0ZM38.5 72.1875C19.9286 72.1875 4.8125 57.0762 4.8125 38.5C4.8125 19.9237 19.9286 4.8125 38.5 4.8125C57.0714 4.8125 72.1875 19.9237 72.1875 38.5C72.1875 57.0762 57.0714 72.1875 38.5 72.1875Z" fill="white"/>
<path d="M50.5312 28.875H47.8795C47.5186 27.0848 46.7197 25.4678 45.6562 24.0625H50.5312C51.8595 24.0625 52.9375 22.9845 52.9375 21.6562C52.9375 20.328 51.8595 19.25 50.5312 19.25H26.4687C25.1405 19.25 24.0625 20.328 24.0625 21.6562C24.0625 22.9845 25.1405 24.0625 26.4687 24.0625H36.0937C39.2267 24.0625 41.8735 26.0789 42.8697 28.875H26.4687C25.1405 28.875 24.0625 29.953 24.0625 31.2812C24.0625 32.6095 25.1405 33.6875 26.4687 33.6875H42.8697C41.8735 36.4836 39.2267 38.5 36.0937 38.5H26.4687C26.1559 38.5 25.8431 38.5626 25.5495 38.6829C24.9598 38.9285 24.491 39.3973 24.2454 39.9871C24.1238 40.2783 24.0613 40.5907 24.0613 40.9062C24.0613 41.2218 24.1238 41.5342 24.2454 41.8254C24.3639 42.1204 24.5426 42.3876 24.7699 42.6099L44.0151 61.8551C44.4867 62.3267 45.1027 62.5625 45.7187 62.5625C46.3347 62.5625 46.9507 62.3267 47.4224 61.8599C48.3608 60.9214 48.3608 59.3959 47.4224 58.4574L32.2774 43.3125H36.0937C41.9072 43.3125 46.763 39.1737 47.8795 33.6875H50.5312C51.8595 33.6875 52.9375 32.6095 52.9375 31.2812C52.9375 29.953 51.8595 28.875 50.5312 28.875Z" fill="white"/>
</svg>
