<svg width="21" height="18" viewBox="0 0 21 18" fill="none" xmlns="http://www.w3.org/2000/svg">
<path d="M7.47754 11.5692L11.6159 6.53117L15.7542 11.5692H7.47754Z" stroke="#2AAA8A" stroke-miterlimit="10" stroke-linecap="round" stroke-linejoin="round"/>
<path d="M10.2774 5.03152C10.2774 5.80922 9.64685 6.4397 8.86915 6.4397C8.09141 6.4397 7.46094 5.80922 7.46094 5.03152C7.46094 4.25378 8.09141 3.62331 8.86915 3.62331C9.64685 3.62331 10.2774 4.25378 10.2774 5.03152Z" stroke="#2AAA8A" stroke-miterlimit="10" stroke-linecap="round" stroke-linejoin="round"/>
<path d="M9.22062 9.45336L8.10055 8.08065L5.15918 11.4447H9.06572" stroke="#2AAA8A" stroke-miterlimit="10" stroke-linecap="round" stroke-linejoin="round"/>
<path d="M19.0354 14.068H2.037C1.46429 14.068 1 13.6037 1 13.031V2.03699C1 1.46424 1.46429 0.999989 2.037 0.999989H19.0354C19.6081 0.999989 20.0724 1.46424 20.0724 2.03699V13.031C20.0724 13.6037 19.6081 14.068 19.0354 14.068Z" stroke="#2AAA8A" stroke-miterlimit="10" stroke-linecap="round" stroke-linejoin="round"/>
<path d="M17.6699 6.87218L18.3317 7.53398L17.6699 8.19577" stroke="#2AAA8A" stroke-miterlimit="10" stroke-linecap="round" stroke-linejoin="round"/>
<path d="M3.40301 8.19577L2.74121 7.53398L3.40301 6.87218" stroke="#2AAA8A" stroke-miterlimit="10" stroke-linecap="round" stroke-linejoin="round"/>
<path d="M8.084 16.3394C8.084 16.7042 7.78822 17 7.42337 17C7.05847 17 6.7627 16.7042 6.7627 16.3394C6.7627 15.9745 7.05847 15.6787 7.42337 15.6787C7.78822 15.6787 8.084 15.9745 8.084 16.3394Z" stroke="#2AAA8A" stroke-miterlimit="10" stroke-linecap="round" stroke-linejoin="round"/>
<path d="M11.1963 16.3394C11.1963 16.7042 10.9005 17 10.5356 17C10.1708 17 9.875 16.7042 9.875 16.3394C9.875 15.9745 10.1708 15.6787 10.5356 15.6787C10.9005 15.6787 11.1963 15.9745 11.1963 16.3394Z" stroke="#2AAA8A" stroke-miterlimit="10" stroke-linecap="round" stroke-linejoin="round"/>
<path d="M14.3096 16.3394C14.3096 16.7042 14.0138 17 13.6489 17C13.2841 17 12.9883 16.7042 12.9883 16.3394C12.9883 15.9745 13.2841 15.6787 13.6489 15.6787C14.0138 15.6787 14.3096 15.9745 14.3096 16.3394Z" stroke="#2AAA8A" stroke-miterlimit="10" stroke-linecap="round" stroke-linejoin="round"/>
</svg>
