<svg width="23" height="22" viewBox="0 0 23 22" fill="none" xmlns="http://www.w3.org/2000/svg">
<path d="M14.7271 15.3756H13.6369L6.52191 6.54742H7.69245L14.7271 15.3756Z" fill="#2AAA8A"/>
<path d="M19.0191 3.42484C17.0223 1.33547 14.291 0.107104 11.3991 0.00378411C9.21872 -0.0536161 7.08421 0.543346 5.2366 1.70283C3.40047 2.87379 1.95452 4.56136 1.07088 6.54741C0.18724 8.53345 -0.0767045 10.7491 0.301998 12.8844C0.6807 15.0312 1.6791 17.0172 3.18243 18.59C4.68576 20.1627 6.62518 21.2533 8.74821 21.724C10.8827 22.1947 13.0975 22.0225 15.1173 21.2304C17.1485 20.4383 18.8928 19.0606 20.1437 17.2812C21.3831 15.4904 22.0716 13.378 22.1175 11.1968C22.129 8.30385 21.0273 5.5142 19.0191 3.42484ZM13.0861 16.4891L9.9876 12.6433L6.44157 16.4891H4.4792L9.06953 11.5068L4.22673 5.49124H8.2777L11.0778 9.00413L14.3255 5.49124H16.2878L11.9959 10.1521L17.0452 16.4891H13.0861Z" fill="#2AAA8A"/>
</svg>
