<svg width="33" height="33" viewBox="0 0 33 33" fill="none" xmlns="http://www.w3.org/2000/svg">
<path d="M32.8578 21.068C29.9666 15.4306 23.6743 10.3125 16.4999 10.3125C9.27512 10.3125 3.00115 15.493 0.142021 21.068C0.0486814 21.25 0 21.4516 0 21.6562C0 21.8607 0.0486814 22.0624 0.142021 22.2444C3.03318 27.8817 9.32545 32.9998 16.4999 32.9998C24.6235 32.9998 30.6116 26.624 32.8578 22.2443C32.9511 22.0623 32.9998 21.8607 32.9998 21.6562C32.9998 21.4516 32.9511 21.25 32.8578 21.068ZM16.4999 30.4217C10.6491 30.4217 5.73794 26.5348 2.77427 21.6562C5.70514 16.8315 10.6007 12.8906 16.4999 12.8906C22.3739 12.8906 27.2785 16.8051 30.2255 21.6562C27.2482 26.557 22.3173 30.4217 16.4999 30.4217ZM0.406213 7.16535C0.88252 6.63626 1.69765 6.59359 2.22675 7.06996L5.09773 9.65497C5.62676 10.1314 5.6695 10.9464 5.19312 11.4755C4.71675 12.0047 3.90162 12.0472 3.37259 11.5709L0.501603 8.98582C-0.0274254 8.50951 -0.0701576 7.69444 0.406213 7.16535ZM15.2108 6.44528V1.28906C15.2108 0.577175 15.7879 0 16.4999 0C17.2118 0 17.7889 0.577175 17.7889 1.28906V6.44528C17.7889 7.15716 17.2118 7.73434 16.4999 7.73434C15.7879 7.73434 15.2108 7.15716 15.2108 6.44528ZM7.03822 3.57423C6.74863 2.92384 7.04112 2.16188 7.69151 1.87229C8.34197 1.5827 9.10386 1.87519 9.39345 2.52558L11.3649 6.95349C11.6545 7.60382 11.362 8.36585 10.7116 8.65543C10.0631 8.94412 9.30019 8.65453 9.00963 8.00214L7.03822 3.57423ZM27.8067 11.4755C27.3303 10.9465 27.373 10.1314 27.902 9.65497L30.773 7.06996C31.3021 6.59359 32.1172 6.63626 32.5936 7.16535C33.0699 7.69438 33.0273 8.50945 32.4982 8.98582L29.6272 11.5709C29.098 12.0473 28.283 12.0045 27.8067 11.4755ZM21.6348 6.95349L23.6063 2.52558C23.8959 1.87519 24.6578 1.5827 25.3082 1.87229C25.9586 2.16188 26.2511 2.92384 25.9615 3.57423L23.9901 8.00208C23.6992 8.65543 22.9356 8.94367 22.2881 8.65543C21.6378 8.36585 21.3453 7.60389 21.6348 6.95349ZM16.4999 15.3237C13.0082 15.3237 10.1674 18.1644 10.1674 21.6562C10.1674 25.1479 13.0082 27.9886 16.4999 27.9886C19.9916 27.9886 22.8324 25.1479 22.8324 21.6562C22.8324 18.1644 19.9916 15.3237 16.4999 15.3237ZM16.4999 25.4105C14.4297 25.4105 12.7455 23.7263 12.7455 21.6562C12.7455 19.586 14.4297 17.9018 16.4999 17.9018C18.5701 17.9018 20.2543 19.586 20.2543 21.6562C20.2543 23.7263 18.5701 25.4105 16.4999 25.4105Z" fill="#0047AD"/>
</svg>
