<svg width="23" height="23" viewBox="0 0 23 23" fill="none" xmlns="http://www.w3.org/2000/svg">
<path fill-rule="evenodd" clip-rule="evenodd" d="M4.92216 1.86651C6.74347 0.64955 8.88476 0 11.0752 0C14.0126 0 16.8296 1.16685 18.9066 3.24386C20.9836 5.32086 22.1505 8.13789 22.1505 11.0752C22.1505 13.2657 21.5009 15.407 20.2839 17.2283C19.067 19.0496 17.3373 20.4691 15.3135 21.3074C13.2898 22.1457 11.0629 22.365 8.91456 21.9376C6.76618 21.5103 4.79276 20.4555 3.24386 18.9066C1.69496 17.3577 0.640152 15.3843 0.212812 13.2359C-0.214528 11.0875 0.0047987 8.86065 0.843056 6.83692C1.68131 4.81319 3.10085 3.08347 4.92216 1.86651ZM16.7369 13.8794C16.8476 13.6118 16.9045 13.3249 16.9043 13.0352V9.1152C16.9045 8.82553 16.8476 8.53867 16.7369 8.27099C16.6262 8.00332 16.4638 7.76009 16.259 7.5552C16.0543 7.3503 15.8111 7.18777 15.5435 7.07687C15.2759 6.96598 14.9891 6.9089 14.6994 6.9089H7.45101C7.16134 6.9089 6.87451 6.96598 6.60691 7.07687C6.33931 7.18777 6.09619 7.3503 5.89143 7.5552C5.68667 7.76009 5.5243 8.00332 5.41358 8.27099C5.30286 8.53867 5.24597 8.82553 5.24616 9.1152V13.0352C5.24597 13.3249 5.30286 13.6118 5.41358 13.8794C5.5243 14.1471 5.68667 14.3904 5.89143 14.5952C6.09619 14.8001 6.33931 14.9627 6.60691 15.0736C6.87451 15.1845 7.16134 15.2415 7.45101 15.2415H14.6994C14.9891 15.2415 15.2759 15.1845 15.5435 15.0736C15.8111 14.9627 16.0543 14.8001 16.259 14.5952C16.4638 14.3904 16.6262 14.1471 16.7369 13.8794ZM12.6112 11.0796L9.53927 12.8618V9.28863L12.6112 11.0796Z" fill="white"/>
</svg>
